<svg width="320" height="240" viewBox="0 0 320 240" fill="none" xmlns="http://www.w3.org/2000/svg">
  <rect width="320" height="240" rx="28" fill="#FFF3EE"/>
  <rect x="58" y="128" width="204" height="54" rx="18" fill="#FFD4C7"/>
  <rect x="80" y="68" width="18" height="86" rx="9" fill="#FF7F93"/>
  <rect x="122" y="52" width="18" height="102" rx="9" fill="#7ED0C5"/>
  <rect x="164" y="74" width="18" height="80" rx="9" fill="#F4C97B"/>
  <rect x="206" y="60" width="18" height="94" rx="9" fill="#F186A0"/>
  <path d="M89 42C98 52 98 66 89 74C80 66 80 52 89 42Z" fill="#F4C97B"/>
  <path d="M131 26C140 36 140 50 131 58C122 50 122 36 131 26Z" fill="#EF5A7A"/>
  <path d="M173 48C182 58 182 72 173 80C164 72 164 58 173 48Z" fill="#F4C97B"/>
  <path d="M215 34C224 44 224 58 215 66C206 58 206 44 215 34Z" fill="#EF5A7A"/>
  <path d="M80 108H98" stroke="#FFF8F4" stroke-width="4"/>
  <path d="M122 90H140" stroke="#FFF8F4" stroke-width="4"/>
  <path d="M164 110H182" stroke="#FFF8F4" stroke-width="4"/>
  <path d="M206 94H224" stroke="#FFF8F4" stroke-width="4"/>
</svg>
